<svg width="331" height="303" viewBox="0 0 331 303" fill="none" xmlns="http://www.w3.org/2000/svg">
<g clip-path="url(#clip0_205_779)">
<path d="M294.09 252.863C292.112 252.863 290.108 252.515 288.079 251.819C286.051 251.123 284.174 250.04 282.45 248.57C280.776 247.023 279.406 245.051 278.341 242.653C277.327 240.177 276.82 237.238 276.82 233.834C276.82 233.447 276.82 233.099 276.82 232.79C276.82 232.403 276.845 231.939 276.896 231.398C277.048 229.309 277.378 226.718 277.885 223.623C278.443 220.529 279.077 217.242 279.787 213.761C280.497 210.28 281.182 206.838 281.841 203.434C282.551 200.03 283.134 196.936 283.591 194.151C284.047 191.289 284.276 189.007 284.276 187.306C284.276 185.449 283.946 184.521 283.286 184.521C282.627 184.521 281.638 185.488 280.319 187.422C279.001 189.355 277.479 192.566 275.755 197.052L275.298 196.82C275.298 190.554 276.211 185.217 278.037 180.808C279.914 176.321 282.551 172.918 285.949 170.597C289.398 168.199 293.456 167 298.122 167C302.484 167 306.237 168.006 309.382 170.017C312.526 171.951 315.088 174.619 317.066 178.023C319.095 181.427 320.591 185.333 321.554 189.742C322.518 194.074 323 198.638 323 203.434C323 209.236 322.315 215.076 320.946 220.955C319.627 226.756 317.7 232.094 315.164 236.967C312.679 241.763 309.635 245.631 306.034 248.57C302.484 251.432 298.502 252.863 294.09 252.863ZM295.383 237.547C297.412 237.547 299.238 236.658 300.861 234.878C302.535 233.022 303.98 230.585 305.197 227.568C306.415 224.552 307.353 221.225 308.012 217.59C308.672 213.877 309.001 210.164 309.001 206.451C309.001 202.042 308.494 197.903 307.48 194.035C306.516 190.168 304.944 187.035 302.763 184.637C300.582 182.239 297.742 181.04 294.242 181.04C294.496 182.51 294.673 184.018 294.774 185.565C294.927 187.112 295.003 188.698 295.003 190.322C295.003 193.881 294.774 197.516 294.318 201.229C293.912 204.942 293.43 208.539 292.872 212.02C292.365 215.501 291.883 218.75 291.427 221.767C291.021 224.784 290.818 227.452 290.818 229.773C290.818 232.171 291.148 234.066 291.807 235.459C292.467 236.851 293.659 237.547 295.383 237.547Z" fill="#06783D"/>
<path d="M243.183 252.801C239.774 252.801 236.823 252.191 234.33 250.97C231.888 249.698 229.852 247.993 228.224 245.856C226.647 243.668 225.451 241.2 224.637 238.453C223.874 235.705 223.492 232.805 223.492 229.752C223.492 225.885 224.077 222.018 225.247 218.151C226.469 214.284 228.224 210.747 230.514 207.542C232.854 204.336 235.704 201.767 239.062 199.833C242.42 197.849 246.262 196.857 250.587 196.857C253.996 196.857 256.921 197.493 259.364 198.765C261.857 199.986 263.892 201.69 265.47 203.878C267.098 206.015 268.294 208.458 269.057 211.205C269.871 213.953 270.278 216.853 270.278 219.906C270.278 223.722 269.667 227.589 268.446 231.507C267.276 235.374 265.521 238.911 263.18 242.116C260.89 245.322 258.066 247.917 254.708 249.901C251.35 251.835 247.508 252.801 243.183 252.801ZM246.007 243.108C247.788 243.108 249.34 242.498 250.663 241.277C251.986 240.055 253.08 238.453 253.945 236.468C254.861 234.433 255.548 232.194 256.006 229.752C256.464 227.309 256.693 224.842 256.693 222.348C256.693 219.601 256.387 217.031 255.777 214.64C255.217 212.198 254.301 210.239 253.029 208.763C251.808 207.237 250.205 206.473 248.221 206.473C246.491 206.473 244.939 207.084 243.565 208.305C242.191 209.475 241.021 211.078 240.054 213.113C239.087 215.098 238.35 217.311 237.841 219.753C237.383 222.145 237.154 224.562 237.154 227.004C237.154 229.803 237.485 232.423 238.146 234.865C238.807 237.308 239.8 239.292 241.123 240.819C242.446 242.345 244.074 243.108 246.007 243.108Z" fill="#06783D"/>
<path d="M191.904 252.801C188.495 252.801 185.544 252.191 183.05 250.97C180.608 249.698 178.573 247.993 176.945 245.856C175.367 243.668 174.172 241.2 173.357 238.453C172.594 235.705 172.213 232.805 172.213 229.752C172.213 225.885 172.798 222.018 173.968 218.151C175.189 214.284 176.945 210.747 179.234 207.542C181.575 204.336 184.424 201.767 187.782 199.833C191.141 197.849 194.982 196.857 199.307 196.857C202.716 196.857 205.642 197.493 208.084 198.765C210.578 199.986 212.613 201.69 214.19 203.878C215.818 206.015 217.014 208.458 217.777 211.205C218.592 213.953 218.999 216.853 218.999 219.906C218.999 223.722 218.388 227.589 217.167 231.507C215.997 235.374 214.241 238.911 211.901 242.116C209.611 245.322 206.787 247.917 203.429 249.901C200.07 251.835 196.229 252.801 191.904 252.801ZM194.728 243.108C196.509 243.108 198.061 242.498 199.384 241.277C200.706 240.055 201.8 238.453 202.665 236.468C203.581 234.433 204.268 232.194 204.726 229.752C205.184 227.309 205.413 224.842 205.413 222.348C205.413 219.601 205.108 217.031 204.497 214.64C203.937 212.198 203.022 210.239 201.75 208.763C200.528 207.237 198.926 206.473 196.941 206.473C195.211 206.473 193.659 207.084 192.286 208.305C190.912 209.475 189.741 211.078 188.775 213.113C187.808 215.098 187.07 217.311 186.561 219.753C186.103 222.145 185.874 224.562 185.874 227.004C185.874 229.803 186.205 232.423 186.867 234.865C187.528 237.308 188.52 239.292 189.843 240.819C191.166 242.345 192.794 243.108 194.728 243.108Z" fill="#06783D"/>
<path d="M140.154 252.863C138.323 252.863 136.67 251.702 135.195 249.378C133.721 247.054 132.983 243.22 132.983 237.875C132.983 233.537 133.314 229.277 133.975 225.094C134.636 220.912 135.373 216.69 136.187 212.43C137.052 208.092 137.763 203.638 138.323 199.068C138.933 194.421 139.137 189.541 138.933 184.428C137.56 184.738 136.212 185.28 134.89 186.055C133.568 186.83 132.271 187.953 131 189.424C131 184.544 131.28 180.594 131.839 177.573C132.398 174.475 133.492 172.228 135.119 170.834C136.746 169.44 139.162 168.743 142.366 168.743C144.095 168.743 146.027 168.936 148.163 169.324C150.299 169.711 152.486 170.098 154.723 170.486C157.011 170.873 159.173 171.067 161.207 171.067C163.19 171.067 164.97 170.795 166.546 170.253C168.123 169.634 169.343 168.549 170.208 167C171.225 168.007 171.988 169.401 172.496 171.183C173.056 172.887 173.335 174.746 173.335 176.76C173.335 178.851 173.005 180.904 172.344 182.918C171.734 184.854 170.767 186.481 169.445 187.798C168.123 189.037 166.394 189.657 164.258 189.657C162.021 189.657 159.58 189.115 156.935 188.03C154.291 186.946 151.57 186.016 148.773 185.242C149.028 186.946 149.205 188.65 149.307 190.354C149.46 192.058 149.536 193.801 149.536 195.582C149.536 197.519 149.485 199.455 149.383 201.392C149.282 203.251 149.129 205.187 148.926 207.201C149.994 206.349 151.29 205.575 152.816 204.877C154.342 204.18 155.893 203.599 157.469 203.135C159.096 202.67 160.546 202.438 161.817 202.438C162.631 202.438 163.343 202.554 163.953 202.786C164.462 204.413 164.716 206.388 164.716 208.712C164.716 212.43 164.106 216.225 162.885 220.098L162.351 220.447C160.47 218.898 158.283 217.697 155.791 216.845C153.35 215.993 150.782 215.412 148.087 215.102C147.578 219.517 147.095 224.01 146.637 228.58C146.18 233.15 145.951 237.836 145.951 242.639C145.951 243.646 145.951 244.691 145.951 245.776C146.002 246.86 146.053 247.945 146.103 249.029C144.425 251.585 142.442 252.863 140.154 252.863Z" fill="#06783D"/>
<path d="M50.612 52.9005C54.9944 53.9583 64.0614 56.1603 70.7753 57.7794C77.4891 59.3985 83.0372 60.7801 83.1452 60.8449C83.2315 60.8881 83.2963 61.4709 83.2963 62.097C83.2963 63.1332 83.2315 63.2843 82.8214 63.3923C82.3033 63.5002 71.8331 65.1841 67.8609 65.767L65.4862 66.134L68.0768 68.7461C70.9695 71.6605 71.6172 72.7399 72.5886 76.086C73.2795 78.4607 73.5817 80.857 73.5817 83.9225C73.5817 85.7575 73.5169 86.3835 73.2579 86.5994C72.8909 86.9017 72.6102 86.7505 71.7683 85.7575C70.7968 84.5917 68.4222 82.2602 67.3859 81.4615L66.4576 80.7491L66.2202 81.2888C65.918 81.958 65.2055 82.0228 64.3852 81.5046C64.1045 81.3104 63.7807 81.2024 63.716 81.2888C63.5864 81.4183 62.7229 87.7436 59.4631 112.289C59.0314 115.549 58.6212 118.593 58.5349 119.025L58.4053 119.845H75.8269C86.5345 119.845 93.3995 119.759 93.637 119.629C93.9176 119.5 94.0687 119.046 94.1767 118.183C94.263 117.492 94.6948 113.649 95.1697 109.655C97.8466 86.6642 100.113 78.3528 106.266 69.0268C111.598 60.9097 116.844 56.5057 124.054 54.131C126.947 53.1811 127.746 53.0084 130.574 52.7062C133.877 52.3824 136.511 52.6846 139.123 53.7208C141.476 54.6491 141.454 54.606 140.591 57.067C139.857 59.1394 137.266 64.3853 136.899 64.5149C136.295 64.7523 135.453 64.299 134.114 63.0469C131.697 60.8017 129.624 59.7439 126.926 59.4201C123.687 59.0099 121.162 59.9382 118.593 62.5288C116.067 65.033 114.858 67.8178 113.066 75.0498C111.21 82.692 110.065 89.7297 108.123 105.489C107.065 114.038 105.942 122.025 104.366 132.15C101.581 150.025 100.675 157.797 100.847 162.265C100.998 166.777 101.797 168.677 103.956 169.735C104.971 170.231 105.1 170.253 109.936 170.188C113.735 170.145 114.944 170.21 115.074 170.404C115.355 170.879 115.268 172.93 114.923 173.599C114.75 173.945 114.426 174.333 114.21 174.441C113.627 174.743 110.735 175.499 106.18 176.514C103.87 177.032 99.9839 177.938 97.5444 178.543C92.169 179.838 90.2476 180.205 87.7434 180.421L85.8437 180.572L85.9948 178.435C86.2539 174.571 87.1605 167.598 88.5854 158.639C89.3625 153.803 90.2908 147.391 90.6362 144.391C91.0032 141.411 91.6293 136.856 92.0395 134.309C92.4496 131.762 92.8382 128.782 92.9246 127.725L93.0541 125.782L75.503 125.846C65.8316 125.89 57.8656 125.998 57.7793 126.062C57.5634 126.278 56.851 130.423 56.0954 135.885C54.9081 144.391 53.1594 150.176 49.6622 157.063C43.38 169.411 34.3131 177.204 23.4543 179.579C22.0943 179.86 20.799 179.968 18.1005 179.946C14.8623 179.924 14.3226 179.86 12.0558 179.277C7.41439 178.046 4.26253 176.362 1.39133 173.578C0.0312809 172.239 -0.0766582 172.066 0.0312819 171.44C0.203986 170.642 1.4561 168.763 3.16155 166.756C3.85237 165.957 4.867 164.705 5.42829 163.971C5.98958 163.259 6.70199 162.525 7.02581 162.352C7.54392 162.071 7.60868 162.093 8.38585 162.956C8.81761 163.453 9.7459 164.726 10.4583 165.763C12.0342 168.159 14.1499 170.253 15.8553 171.16C17.6255 172.11 20.799 172.93 23.1737 173.081C29.3262 173.491 34.3778 169.929 37.8535 162.784C39.2351 159.934 40.8542 154.796 41.7178 150.435C42.8403 144.866 45.0855 129.193 45.0855 126.969V125.954L41.2644 125.976C37.0979 125.998 35.6515 125.76 35.9106 125.048C36.2344 124.163 37.9399 121.421 38.6307 120.622L39.4294 119.737L42.6892 119.715C44.481 119.715 45.9922 119.672 46.057 119.608C46.1433 119.5 46.4024 117.513 47.3522 109.699C47.5465 108.101 48.4748 101.344 49.4247 94.6949C50.3746 88.0458 51.1949 81.7637 51.2813 80.7491L51.4108 78.8925L49.9212 78.6334C48.1942 78.3312 46.4671 78.4823 44.4379 79.0868C42.4518 79.6912 36.0617 83.0158 34.5721 84.2031C32.2406 86.0813 30.2977 88.9525 28.6786 92.9679C27.3401 96.2277 26.9731 97.9331 26.7357 101.927C26.6277 103.891 26.4766 105.834 26.3903 106.245C26.1744 107.453 25.5699 108.231 24.2746 109.051C23.6054 109.461 21.9647 110.519 20.6479 111.404C17.9278 113.196 16.762 113.779 15.8985 113.8C15.3588 113.8 15.3156 113.714 15.1645 112.57C14.9918 111.145 15.1861 108.123 15.5747 105.813L15.8553 104.194L15.1861 104.215C14.7975 104.237 14.3873 104.302 14.2362 104.41C13.8908 104.604 11.0844 104.604 10.7605 104.41C10.6094 104.323 10.0913 104.237 9.61637 104.194C9.14144 104.172 8.68808 104.043 8.64491 103.913C8.60173 103.762 8.38585 103.654 8.16997 103.654C7.67344 103.654 6.29182 102.315 6.01117 101.582C5.86005 101.215 6.01117 100.481 6.57246 98.6887C7.69503 95.1051 8.90397 93.2485 10.2856 92.9247L11.0844 92.7304L11.1491 82.6488L11.1923 72.5672H10.2856C9.76749 72.5672 8.81761 72.7183 8.16997 72.9126C6.18387 73.4739 5.96799 73.4955 5.79529 73.2148C5.36353 72.524 7.71662 68.0337 9.40049 66.2851L10.5878 65.0546L5.38512 60.5643C0.311931 56.1603 0.182401 56.0308 0.182401 55.232C0.182401 54.7787 0.290337 54.3901 0.463041 54.3253C0.592569 54.2821 5.14765 53.872 10.5447 53.4402C15.9417 53.0084 24.7496 52.296 30.0818 51.8427C35.4357 51.3893 40.4441 51.0224 41.2212 51.0008C42.3222 50.9792 44.3947 51.4109 50.612 52.9005Z" fill="white"/>
<path d="M29.866 52.5121C24.4042 52.9655 16.2008 53.6347 11.6241 54.0017C0.182459 54.9084 0.830099 54.8221 0.851687 55.3833C0.851687 55.7072 2.4492 57.2183 6.29187 60.5213C10.9333 64.5367 11.7536 65.1627 11.8832 64.7957C11.9695 64.5798 12.2286 64.2776 12.4876 64.1481C13.0273 63.8674 20.6911 61.9461 20.9501 62.0325C21.0581 62.0756 19.4174 62.529 17.3018 63.0471C15.1861 63.5652 13.2 64.1265 12.8762 64.2776C12.4876 64.4719 12.207 64.8605 12.0559 65.4002C11.9048 65.9399 11.84 70.495 11.8832 79.7994L11.9479 93.3999H13.0273L13.1353 79.6483C13.2216 67.4079 13.2864 65.8535 13.5886 65.5513C13.8045 65.3354 18.4028 64.0617 24.9223 62.3779C30.967 60.8235 36.0186 59.4635 36.1265 59.3555C36.2776 59.226 36.1913 59.0533 35.9322 58.8374C35.5652 58.5784 35.5652 58.5352 35.8675 58.5352C36.1697 58.5352 36.8173 59.334 36.623 59.5067C36.5799 59.5498 32.1975 60.7156 26.8437 62.0972C12.7683 65.7456 13.567 65.4865 13.567 66.3069C13.567 66.5444 14.9055 67.7965 16.9564 69.4587C18.8129 70.9915 20.4536 72.3084 20.6047 72.3947C20.799 72.5242 60.8448 66.3285 81.85 62.9392C82.6487 62.8096 82.6703 62.788 82.6055 62.0325L82.5408 61.2769L71.5309 58.6C65.4862 57.1536 56.484 54.9732 51.562 53.7858C44.5459 52.102 42.3007 51.627 41.1997 51.6486C40.4225 51.6702 35.3278 52.0588 29.866 52.5121Z" fill="#333333"/>
<path d="M9.85386 66.6954C8.81764 67.7964 6.44296 71.8549 6.44296 72.5458C6.44296 72.6753 6.78836 72.6321 7.37124 72.4378C7.86776 72.2435 9.03352 72.0492 9.9618 71.9845L11.6241 71.8549V68.7894C11.6241 65.0547 11.5161 64.9468 9.85386 66.6954Z" fill="#333333"/>
<path d="M56.4192 67.7102C42.4302 70.0417 22.5044 73.2799 21.5545 73.3662L20.5831 73.4742L17.1938 70.5598C15.3372 68.9623 13.7181 67.5806 13.5886 67.4943C13.4158 67.4079 13.3511 68.0987 13.3511 69.7178V72.0925L14.1498 72.2436C16.0712 72.589 18.3379 74.424 20.2161 77.1657C22.6987 80.7925 23.6486 83.4694 24.9654 90.5719L25.1166 91.4138L26.3902 89.8811C28.2252 87.6143 31.9815 84.117 34.2483 82.4979C38.1557 79.7563 42.4301 77.8133 47.1363 76.7124C49.2304 76.2158 49.9428 76.1511 53.2889 76.1511C56.6998 76.1511 57.2827 76.2158 59.2256 76.7339C63.5864 77.8997 66.9973 79.9721 70.6457 83.6637L72.9988 86.0384L72.8693 82.6059C72.7397 78.5905 72.1569 75.8704 70.8616 73.2151C70.2139 71.8982 69.5879 71.1426 67.537 69.0486C65.1407 66.6739 64.9465 66.5228 64.1693 66.5444C63.6944 66.5444 60.2187 67.0841 56.4192 67.7102Z" fill="#333333"/>
<path d="M13.7828 92.817L14.5168 92.9465C14.927 93.0329 15.4883 93.2919 15.7905 93.5078C16.395 93.9827 17.496 95.8609 17.9062 97.113L18.1436 97.8686L18.8129 97.1562C19.1799 96.746 20.5399 95.019 21.8352 93.2919L24.1883 90.1617L24.0372 88.9743C23.7997 87.0746 22.9578 84.0522 22.0942 81.9582C20.2161 77.3815 17.0858 73.7548 14.2794 72.8912L13.7828 72.7617V92.817Z" fill="#1E1E1E"/>
<path d="M10.3719 93.5292C9.8754 93.6804 9.44364 94.0689 8.88235 94.9325C8.12677 96.055 8.10518 96.163 8.38582 96.6811C9.07664 97.89 9.72428 98.1491 12.2285 98.2138C14.7975 98.2786 15.6394 98.0195 16.4382 96.9186C16.8699 96.3357 16.8699 96.3141 16.4813 95.4722C16.0064 94.3928 15.4235 93.8746 14.3441 93.5508C13.6749 93.3565 13.4158 93.3781 13.0057 93.6588C12.5307 93.961 12.4444 93.961 11.9478 93.6372C11.365 93.2486 11.365 93.2486 10.3719 93.5292Z" fill="#333333"/>
<path d="M7.15538 98.9263C6.35662 101.517 6.44297 102.38 7.32808 100.502C7.99731 99.0774 8.08366 99.2717 7.6519 101.171C7.37126 102.316 7.37126 102.467 7.69508 102.704C8.12684 103.028 8.14842 102.985 8.79607 100.848L9.22783 99.4444L9.18465 101.495C9.14147 103.417 9.16306 103.546 9.57323 103.546C9.94023 103.546 10.0482 103.265 10.3288 101.603L10.6742 99.6603L10.8253 100.848C10.9117 101.495 10.9765 102.402 10.9765 102.855C10.9765 103.503 11.0844 103.697 11.473 103.848C11.9047 104.021 11.9695 103.956 12.099 103.136C12.1638 102.661 12.2502 101.841 12.2502 101.323C12.2717 100.114 12.7035 100.329 12.7251 101.56C12.7251 102.057 12.7899 102.812 12.8762 103.244C13.0057 103.956 13.0705 104.021 13.5238 103.848C13.9124 103.697 13.9988 103.503 13.9988 102.834C13.9988 102.359 14.0635 101.517 14.1499 100.934L14.301 99.8761L14.6464 101.711C14.9271 103.287 15.035 103.546 15.402 103.546C15.8122 103.546 15.8338 103.417 15.7906 101.495L15.7474 99.4444L16.1792 100.848C16.8484 103.071 16.8484 103.071 17.2802 102.747C17.6256 102.488 17.6256 102.359 17.3449 101.171C16.8916 99.2717 16.9779 99.0774 17.6472 100.502C18.5323 102.359 18.6186 101.538 17.8414 98.9263L17.1722 96.7459L16.7836 97.3719C16.2008 98.3434 14.7328 98.7967 12.2717 98.7752C9.96182 98.7752 8.64495 98.2786 8.10525 97.264C7.8246 96.7459 7.80302 96.8106 7.15538 98.9263Z" fill="#333333"/>
<path d="M296.034 155.98C294.924 155.98 294.368 155.588 294.368 154.804C294.368 154.477 294.597 153.758 295.055 152.648C295.577 151.472 296.067 149.675 296.525 147.258L298.19 137.85C299.954 127.788 300.869 121.908 300.934 120.21V119.328C300.934 118.217 300.64 117.662 300.052 117.662C298.811 117.662 297.112 119.654 294.956 123.64C294.695 124.162 294.401 124.652 294.074 125.11C293.748 125.502 293.421 125.698 293.094 125.698C292.441 125.698 292.115 125.142 292.115 124.032C292.115 122.333 292.866 120.242 294.368 117.76C295.936 115.212 297.831 113.023 300.052 111.194C302.339 109.299 304.528 108.352 306.618 108.352C309.428 108.352 310.832 110.214 310.832 113.938C310.832 114.722 310.571 117.466 310.048 122.17H310.146C312.89 117.335 315.471 113.84 317.888 111.684C320.371 109.462 322.854 108.352 325.336 108.352C327.035 108.352 328.407 108.842 329.452 109.822C330.498 110.802 331.021 112.206 331.021 114.036C331.021 115.8 330.596 117.531 329.746 119.23C328.962 120.928 327.982 122.333 326.806 123.444C325.63 124.489 324.618 125.012 323.768 125.012C323.246 125.012 323.083 124.685 323.279 124.032C323.475 123.117 323.572 122.268 323.572 121.484C323.572 119.785 322.821 118.936 321.318 118.936C318.836 118.936 316.353 120.634 313.87 124.032C311.453 127.429 309.558 132.329 308.186 138.732C307.206 142.782 306.553 145.951 306.227 148.238C305.9 150.067 304.593 151.831 302.306 153.53C300.085 155.163 297.994 155.98 296.034 155.98Z" fill="white"/>
<path d="M252.323 155.98C250.298 155.98 248.697 154.967 247.521 152.942C246.411 150.916 245.855 148.205 245.855 144.808C245.855 139.385 247.162 133.832 249.775 128.148C252.454 122.464 256.08 117.76 260.653 114.036C265.227 110.246 270.159 108.352 275.451 108.352C277.15 108.352 278.816 108.548 280.449 108.94C282.148 109.332 283.52 109.822 284.565 110.41C283.977 111.847 283.585 113.023 283.389 113.938C283.193 114.852 283.063 115.44 282.997 115.702C282.54 118.054 281.854 121.647 280.939 126.482C280.09 131.251 279.273 135.824 278.489 140.202C278.097 142.162 277.901 143.664 277.901 144.71C277.901 145.428 277.999 145.951 278.195 146.278C278.457 146.604 278.816 146.768 279.273 146.768C280.384 146.768 281.397 146.114 282.311 144.808C283.226 143.436 284.206 141.541 285.251 139.124C285.382 138.732 285.545 138.405 285.741 138.144C285.937 137.882 286.199 137.752 286.525 137.752C287.113 137.752 287.407 138.209 287.407 139.124C287.407 139.581 287.375 139.94 287.309 140.202C286.983 142.684 286.133 145.167 284.761 147.65C283.389 150.067 281.691 152.06 279.665 153.628C277.705 155.196 275.68 155.98 273.589 155.98C271.891 155.98 270.551 155.359 269.571 154.118C268.657 152.876 268.199 151.21 268.199 149.12C268.199 148.597 268.265 147.813 268.395 146.768L268.885 143.436H268.689C266.272 147.094 263.495 150.1 260.359 152.452C257.289 154.804 254.61 155.98 252.323 155.98ZM257.909 146.278C259.347 146.278 261.176 145.004 263.397 142.456C265.684 139.908 267.807 136.706 269.767 132.852C271.727 128.932 273.034 125.044 273.687 121.19L274.373 117.368C272.74 116.388 271.237 115.898 269.865 115.898C267.775 115.898 265.651 117.204 263.495 119.818C261.405 122.366 259.673 125.698 258.301 129.814C256.995 133.864 256.341 138.013 256.341 142.26C256.341 143.828 256.439 144.906 256.635 145.494C256.897 146.016 257.321 146.278 257.909 146.278Z" fill="white"/>
<path d="M218.56 155.98C217.776 155.98 217.221 155.751 216.894 155.294C216.633 154.902 216.437 154.216 216.306 153.236C216.241 152.19 216.175 150.361 216.11 147.748C215.914 141.933 215.685 137.196 215.424 133.538C214.967 127.396 214.411 123.215 213.758 120.994C213.105 118.772 212.19 117.662 211.014 117.662C209.511 117.662 208.139 119.132 206.898 122.072C206.441 123.117 206.049 123.803 205.722 124.13C205.461 124.456 205.101 124.62 204.644 124.62C203.925 124.62 203.566 124.064 203.566 122.954C203.566 121.32 204.056 119.328 205.036 116.976C206.016 114.624 207.355 112.598 209.054 110.9C210.753 109.201 212.647 108.352 214.738 108.352C217.678 108.352 219.834 110.05 221.206 113.448C222.578 116.78 223.558 121.582 224.146 127.854C224.473 132.1 224.669 134.714 224.734 135.694C224.734 137 224.832 138.699 225.028 140.79C225.028 141.966 225.093 142.75 225.224 143.142C225.355 143.534 225.649 143.73 226.106 143.73C227.282 143.73 228.687 142.586 230.32 140.3C231.953 138.013 233.358 135.302 234.534 132.166C235.71 128.964 236.298 126.122 236.298 123.64C236.298 122.072 236.102 120.83 235.71 119.916C235.318 118.936 234.795 118.086 234.142 117.368C233.554 116.584 233.26 115.996 233.26 115.604C233.26 114.754 233.652 113.774 234.436 112.664C235.285 111.488 236.265 110.475 237.376 109.626C238.552 108.776 239.565 108.352 240.414 108.352C241.46 108.352 242.407 109.005 243.256 110.312C244.171 111.618 244.628 113.546 244.628 116.094C244.628 120.863 243.06 126.416 239.924 132.754C236.853 139.026 233.227 144.481 229.046 149.12C224.865 153.693 221.369 155.98 218.56 155.98Z" fill="white"/>
<path d="M168.845 155.98C167.734 155.98 167.179 155.588 167.179 154.804C167.179 154.477 167.408 153.758 167.865 152.648C168.388 151.472 168.878 149.675 169.335 147.258L171.001 137.85C172.765 127.788 173.68 121.908 173.745 120.21V119.328C173.745 118.217 173.451 117.662 172.863 117.662C171.622 117.662 169.923 119.654 167.767 123.64C167.506 124.162 167.212 124.652 166.885 125.11C166.558 125.502 166.232 125.698 165.905 125.698C165.252 125.698 164.925 125.142 164.925 124.032C164.925 122.333 165.676 120.242 167.179 117.76C168.747 115.212 170.642 113.023 172.863 111.194C175.15 109.299 177.338 108.352 179.429 108.352C182.238 108.352 183.643 110.214 183.643 113.938C183.643 114.722 183.382 117.466 182.859 122.17H182.957C185.701 117.335 188.282 113.84 190.699 111.684C193.182 109.462 195.664 108.352 198.147 108.352C199.846 108.352 201.218 108.842 202.263 109.822C203.308 110.802 203.831 112.206 203.831 114.036C203.831 115.8 203.406 117.531 202.557 119.23C201.773 120.928 200.793 122.333 199.617 123.444C198.441 124.489 197.428 125.012 196.579 125.012C196.056 125.012 195.893 124.685 196.089 124.032C196.285 123.117 196.383 122.268 196.383 121.484C196.383 119.785 195.632 118.936 194.129 118.936C191.646 118.936 189.164 120.634 186.681 124.032C184.264 127.429 182.369 132.329 180.997 138.732C180.017 142.782 179.364 145.951 179.037 148.238C178.71 150.067 177.404 151.831 175.117 153.53C172.896 155.163 170.805 155.98 168.845 155.98Z" fill="white"/>
<path d="M125.134 155.98C123.109 155.98 121.508 154.967 120.332 152.942C119.221 150.916 118.666 148.205 118.666 144.808C118.666 139.385 119.973 133.832 122.586 128.148C125.265 122.464 128.891 117.76 133.464 114.036C138.037 110.246 142.97 108.352 148.262 108.352C149.961 108.352 151.627 108.548 153.26 108.94C154.959 109.332 156.331 109.822 157.376 110.41C156.788 111.847 156.396 113.023 156.2 113.938C156.004 114.852 155.873 115.44 155.808 115.702C155.351 118.054 154.665 121.647 153.75 126.482C152.901 131.251 152.084 135.824 151.3 140.202C150.908 142.162 150.712 143.664 150.712 144.71C150.712 145.428 150.81 145.951 151.006 146.278C151.267 146.604 151.627 146.768 152.084 146.768C153.195 146.768 154.207 146.114 155.122 144.808C156.037 143.436 157.017 141.541 158.062 139.124C158.193 138.732 158.356 138.405 158.552 138.144C158.748 137.882 159.009 137.752 159.336 137.752C159.924 137.752 160.218 138.209 160.218 139.124C160.218 139.581 160.185 139.94 160.12 140.202C159.793 142.684 158.944 145.167 157.572 147.65C156.2 150.067 154.501 152.06 152.476 153.628C150.516 155.196 148.491 155.98 146.4 155.98C144.701 155.98 143.362 155.359 142.382 154.118C141.467 152.876 141.01 151.21 141.01 149.12C141.01 148.597 141.075 147.813 141.206 146.768L141.696 143.436H141.5C139.083 147.094 136.306 150.1 133.17 152.452C130.099 154.804 127.421 155.98 125.134 155.98ZM130.72 146.278C132.157 146.278 133.987 145.004 136.208 142.456C138.495 139.908 140.618 136.706 142.578 132.852C144.538 128.932 145.845 125.044 146.498 121.19L147.184 117.368C145.551 116.388 144.048 115.898 142.676 115.898C140.585 115.898 138.462 117.204 136.306 119.818C134.215 122.366 132.484 125.698 131.112 129.814C129.805 133.864 129.152 138.013 129.152 142.26C129.152 143.828 129.25 144.906 129.446 145.494C129.707 146.016 130.132 146.278 130.72 146.278Z" fill="white"/>
</g>
<defs>
<clipPath id="clip0_205_779">
<rect width="331" height="303" fill="white"/>
</clipPath>
</defs>
</svg>
